<?xml version="1.0" encoding="utf-8"?>
<!-- Generator: Adobe Illustrator 25.2.0, SVG Export Plug-In . SVG Version: 6.00 Build 0)  -->
<svg version="1.1" id="Layer_1" xmlns="http://www.w3.org/2000/svg" xmlns:xlink="http://www.w3.org/1999/xlink" x="0px" y="0px"
	 viewBox="0 0 147.7 179.5" style="enable-background:new 0 0 147.7 179.5;" xml:space="preserve">
<style type="text/css">
	.st0{fill:#C77532;}
	.st1{fill:#DBDBDB;}
</style>
<g>
	<path class="st0" d="M142,124.4h-3.6v14.7h8.3v-2.7H142V124.4z M129,127.5c1.2,0,2.1,0.4,2.8,1.1c0.7,0.8,1,1.8,1,3.1
		c0,1.3-0.3,2.3-1,3.1c-0.7,0.8-1.6,1.1-2.8,1.1c-1.2,0-2.1-0.4-2.8-1.1c-0.7-0.8-1-1.8-1-3.1c0-1.3,0.3-2.3,1-3.1
		C126.9,127.8,127.9,127.5,129,127.5 M129,124.1c-1.4,0-2.6,0.3-3.8,1c-1.1,0.6-2,1.5-2.7,2.7c-0.7,1.1-1,2.4-1,3.9
		c0,1.4,0.3,2.7,1,3.9c0.7,1.2,1.6,2.1,2.7,2.7c1.1,0.6,2.4,1,3.8,1c1.4,0,2.6-0.3,3.8-1c1.1-0.6,2-1.5,2.7-2.7c0.7-1.2,1-2.5,1-3.9
		c0-1.4-0.3-2.7-1-3.9c-0.7-1.1-1.5-2-2.7-2.7C131.7,124.5,130.4,124.1,129,124.1 M112.3,127.4h2.2c0.7,0,1.2,0.2,1.6,0.5
		c0.3,0.3,0.5,0.8,0.5,1.4c0,0.6-0.2,1.1-0.5,1.4c-0.3,0.3-0.9,0.5-1.6,0.5h-2.2V127.4z M120.3,139.1l-3.5-5.8
		c1.1-0.3,2-0.8,2.6-1.5c0.6-0.7,0.9-1.7,0.9-2.7c0-0.9-0.2-1.7-0.6-2.4c-0.4-0.7-1-1.3-1.8-1.7c-0.8-0.4-1.8-0.6-3-0.6h-6.1v14.7
		h3.6v-5.6h0.8l3.2,5.6H120.3z M98.1,133.7l1.9-5.4l1.8,5.4H98.1z M103.6,139.1h3.8l-5.4-14.6h-4.1l-5.4,14.6h3.7l0.9-2.7h5.5
		L103.6,139.1z M84.5,124.2c-1.4,0-2.7,0.3-3.8,0.9c-1.1,0.6-1.9,1.5-2.5,2.7c-0.6,1.1-0.9,2.4-0.9,3.9c0,1.5,0.3,2.8,0.9,3.9
		c0.6,1.1,1.4,2,2.5,2.7c1.1,0.6,2.3,0.9,3.8,0.9c1.9,0,3.4-0.5,4.7-1.5s2-2.3,2.4-4h-3.8c-0.3,0.7-0.7,1.2-1.3,1.6
		c-0.6,0.4-1.3,0.6-2.1,0.6c-1,0-1.9-0.4-2.5-1.1c-0.6-0.8-1-1.8-1-3.1c0-1.3,0.3-2.3,1-3.1c0.6-0.8,1.5-1.1,2.5-1.1
		c0.8,0,1.5,0.2,2.1,0.6c0.6,0.4,1,0.9,1.3,1.6h3.8c-0.4-1.7-1.2-3-2.4-4C88,124.7,86.4,124.2,84.5,124.2 M64,127.4h2.2
		c0.7,0,1.2,0.2,1.6,0.5c0.3,0.3,0.5,0.8,0.5,1.4c0,0.6-0.2,1.1-0.5,1.4c-0.3,0.3-0.9,0.5-1.6,0.5H64V127.4z M71.9,139.1l-3.5-5.8
		c1.1-0.3,2-0.8,2.6-1.5c0.6-0.7,0.9-1.7,0.9-2.7c0-0.9-0.2-1.7-0.6-2.4c-0.4-0.7-1-1.3-1.8-1.7c-0.8-0.4-1.8-0.6-3-0.6h-6.1v14.7
		H64v-5.6h0.8l3.2,5.6H71.9z M58.4,127.2v-2.8h-9.2v14.7h9.2v-2.9h-5.6V133h5v-2.7h-5v-3.1H58.4z M33,124.4l5.1,14.7h4.6l5.1-14.7
		H44l-3.6,11.1l-3.6-11.1H33z M28,139.1h3.6v-14.7H28V139.1z M21.6,124.4h-3.6v14.7h8.3v-2.7h-4.7V124.4z M8.6,127.5
		c1.2,0,2.1,0.4,2.8,1.1c0.7,0.8,1,1.8,1,3.1c0,1.3-0.3,2.3-1,3.1c-0.7,0.8-1.6,1.1-2.8,1.1c-1.2,0-2.1-0.4-2.8-1.1
		c-0.7-0.8-1-1.8-1-3.1c0-1.3,0.3-2.3,1-3.1C6.6,127.8,7.5,127.5,8.6,127.5 M8.6,124.1c-1.4,0-2.6,0.3-3.8,1c-1.1,0.6-2,1.5-2.7,2.7
		c-0.7,1.1-1,2.4-1,3.9c0,1.4,0.3,2.7,1,3.9c0.7,1.2,1.6,2.1,2.7,2.7c1.1,0.6,2.4,1,3.8,1s2.6-0.3,3.8-1c1.1-0.6,2-1.5,2.7-2.7
		c0.7-1.2,1-2.5,1-3.9c0-1.4-0.3-2.7-1-3.9c-0.7-1.1-1.5-2-2.7-2.7C11.3,124.5,10,124.1,8.6,124.1"/>
	<path d="M139.6,146.3v1.4h2.5v7.5h1.8v-7.5h2.5v-1.4H139.6z M132.5,146.3h-1.8v6.1l-4-6.1H125v8.9h1.8v-6.1l4,6.1h1.8V146.3z
		 M117.6,147.7v-1.4h-5.3v8.9h5.3v-1.4h-3.5v-2.4h3.2V150h-3.2v-2.3H117.6z M102.5,146.4l-2.6,6.6l-2.7-6.6H95v8.8h1.8v-6.1l2.3,6.1
		h1.5l2.3-6.2v6.2h1.8v-8.8H102.5z M81.2,146.3v1.4h2.5v7.5h1.8v-7.5h2.5v-1.4H81.2z M72.4,155.2h1.8v-8.9h-1.8V155.2z M57.7,146.3
		v5.2c0,1.2,0.3,2.2,1,2.8c0.6,0.6,1.5,1,2.6,1c0.7,0,1.3-0.1,1.9-0.4c0.5-0.3,1-0.7,1.3-1.3c0.3-0.6,0.5-1.3,0.5-2.1v-5.2H63v5.2
		c0,0.7-0.2,1.2-0.5,1.6c-0.3,0.4-0.7,0.5-1.3,0.5c-0.6,0-1-0.2-1.3-0.5c-0.3-0.3-0.5-0.9-0.5-1.6v-5.2H57.7z M45.7,147.8h1.5
		c0.5,0,0.9,0.1,1.2,0.4c0.2,0.2,0.4,0.6,0.4,1c0,0.9-0.5,1.4-1.5,1.4h-1.5V147.8z M50.5,155.2l-2.2-3.6c0.7-0.2,1.3-0.5,1.6-0.9
		c0.4-0.5,0.6-1,0.6-1.7c0-0.8-0.3-1.5-0.8-2c-0.5-0.5-1.3-0.8-2.4-0.8h-3.4v8.9h1.8v-3.5h0.8l2.1,3.5H50.5z M32.3,146.2
		c-0.9,0-1.6,0.2-2.3,0.6c-0.6,0.4-1.2,0.9-1.5,1.6c-0.4,0.7-0.5,1.5-0.5,2.4c0,0.9,0.2,1.7,0.5,2.4c0.4,0.7,0.9,1.2,1.5,1.6
		s1.4,0.6,2.3,0.6c1.1,0,2-0.3,2.8-0.9c0.7-0.6,1.2-1.4,1.5-2.3h-1.9c-0.2,0.5-0.5,0.9-0.9,1.1c-0.4,0.3-0.9,0.4-1.5,0.4
		c-0.5,0-0.9-0.1-1.3-0.4c-0.4-0.2-0.7-0.6-0.9-1c-0.2-0.4-0.3-0.9-0.3-1.5c0-0.6,0.1-1.1,0.3-1.5c0.2-0.4,0.5-0.8,0.9-1
		c0.4-0.2,0.8-0.4,1.3-0.4c0.6,0,1.1,0.1,1.5,0.4c0.4,0.3,0.7,0.7,0.9,1.1h1.9c-0.2-1-0.7-1.8-1.5-2.3
		C34.3,146.5,33.4,146.2,32.3,146.2 M20.9,147.7v-1.4h-5.3v8.9h5.3v-1.4h-3.5v-2.4h3.2V150h-3.2v-2.3H20.9z M3.5,147.8H5
		c0.5,0,0.9,0.1,1.2,0.4c0.2,0.2,0.4,0.6,0.4,1c0,0.9-0.5,1.4-1.5,1.4H3.5V147.8z M8.3,155.2l-2.2-3.6c0.7-0.2,1.3-0.5,1.6-0.9
		c0.4-0.5,0.6-1,0.6-1.7c0-0.8-0.3-1.5-0.8-2c-0.5-0.5-1.3-0.8-2.4-0.8H1.7v8.9h1.8v-3.5h0.8l2.1,3.5H8.3z"/>
	<path d="M146.8,175.5c0-0.4-0.1-0.7-0.2-0.9c-0.2-0.2-0.4-0.4-0.6-0.5c-0.2-0.1-0.5-0.2-0.9-0.4c-0.2-0.1-0.4-0.2-0.6-0.2
		c-0.1-0.1-0.2-0.1-0.3-0.2c-0.1-0.1-0.1-0.2-0.1-0.3c0-0.2,0-0.3,0.1-0.4c0.1-0.1,0.2-0.1,0.4-0.1c0.2,0,0.3,0.1,0.4,0.2
		s0.2,0.3,0.2,0.4h1.5c0-0.5-0.3-0.9-0.6-1.2c-0.4-0.3-0.9-0.4-1.5-0.4c-0.4,0-0.7,0.1-1,0.2c-0.3,0.1-0.5,0.3-0.7,0.6
		c-0.2,0.2-0.3,0.5-0.3,0.9c0,0.4,0.1,0.7,0.2,0.9c0.2,0.2,0.4,0.4,0.6,0.5c0.2,0.1,0.5,0.2,0.9,0.4c0.2,0.1,0.4,0.2,0.6,0.2
		c0.1,0.1,0.3,0.1,0.3,0.2c0.1,0.1,0.1,0.2,0.1,0.4c0,0.2-0.1,0.3-0.2,0.4c-0.1,0.1-0.2,0.1-0.4,0.1c-0.2,0-0.4-0.1-0.5-0.2
		c-0.1-0.1-0.2-0.3-0.2-0.5h-1.4c0,0.5,0.3,1,0.7,1.3c0.4,0.3,0.9,0.5,1.6,0.5c0.4,0,0.8-0.1,1.1-0.2c0.3-0.1,0.5-0.3,0.7-0.6
		C146.7,176.1,146.8,175.8,146.8,175.5 M141.8,171.5h-1.4v3.5l-2.3-3.5h-1.4v5.6h1.4v-3.4l2.3,3.4h1.4V171.5z M133.3,172.7
		c0.4,0,0.8,0.1,1.1,0.4c0.3,0.3,0.4,0.7,0.4,1.2s-0.1,0.9-0.4,1.2c-0.3,0.3-0.6,0.4-1.1,0.4c-0.4,0-0.8-0.1-1.1-0.4
		c-0.3-0.3-0.4-0.7-0.4-1.2c0-0.5,0.1-0.9,0.4-1.2C132.5,172.8,132.8,172.7,133.3,172.7 M133.3,171.4c-0.5,0-1,0.1-1.4,0.4
		c-0.4,0.2-0.8,0.6-1,1s-0.4,0.9-0.4,1.5c0,0.5,0.1,1,0.4,1.5s0.6,0.8,1,1c0.4,0.2,0.9,0.4,1.4,0.4c0.5,0,1-0.1,1.4-0.4
		c0.4-0.2,0.8-0.6,1-1c0.3-0.4,0.4-0.9,0.4-1.5c0-0.5-0.1-1-0.4-1.5s-0.6-0.8-1-1C134.3,171.5,133.8,171.4,133.3,171.4 M128.3,177.1
		h1.4v-5.6h-1.4V177.1z M123.4,171.5v1.1h1.5v4.5h1.4v-4.5h1.5v-1.1H123.4z M118.2,171.5v3.2c0,0.5,0.1,1,0.3,1.3
		c0.2,0.4,0.5,0.6,0.8,0.8c0.3,0.2,0.7,0.3,1.2,0.3c0.4,0,0.9-0.1,1.2-0.3c0.4-0.2,0.6-0.5,0.8-0.8c0.2-0.4,0.3-0.8,0.3-1.3v-3.2
		h-1.4v3.2c0,0.4-0.1,0.7-0.2,0.8c-0.2,0.2-0.4,0.3-0.7,0.3c-0.3,0-0.6-0.1-0.7-0.3c-0.2-0.2-0.2-0.5-0.2-0.8v-3.2H118.2z
		 M115.8,171.5h-1.4v5.6h3.2v-1h-1.8V171.5z M110.8,172.7c0.4,0,0.8,0.1,1.1,0.4c0.3,0.3,0.4,0.7,0.4,1.2s-0.1,0.9-0.4,1.2
		c-0.3,0.3-0.6,0.4-1.1,0.4c-0.4,0-0.8-0.1-1.1-0.4c-0.3-0.3-0.4-0.7-0.4-1.2c0-0.5,0.1-0.9,0.4-1.2
		C110,172.8,110.4,172.7,110.8,172.7 M110.8,171.4c-0.5,0-1,0.1-1.4,0.4c-0.4,0.2-0.8,0.6-1,1c-0.3,0.4-0.4,0.9-0.4,1.5
		c0,0.5,0.1,1,0.4,1.5c0.3,0.4,0.6,0.8,1,1c0.4,0.2,0.9,0.4,1.4,0.4s1-0.1,1.4-0.4c0.4-0.2,0.8-0.6,1-1c0.3-0.4,0.4-0.9,0.4-1.5
		c0-0.5-0.1-1-0.4-1.5c-0.2-0.4-0.6-0.8-1-1C111.9,171.5,111.4,171.4,110.8,171.4 M107.4,175.5c0-0.4-0.1-0.7-0.2-0.9
		c-0.2-0.2-0.4-0.4-0.6-0.5c-0.2-0.1-0.5-0.2-0.9-0.4c-0.2-0.1-0.4-0.2-0.6-0.2c-0.1-0.1-0.2-0.1-0.3-0.2c-0.1-0.1-0.1-0.2-0.1-0.3
		c0-0.2,0-0.3,0.1-0.4c0.1-0.1,0.2-0.1,0.4-0.1c0.2,0,0.3,0.1,0.4,0.2s0.2,0.3,0.2,0.4h1.5c0-0.5-0.3-0.9-0.6-1.2
		c-0.4-0.3-0.9-0.4-1.5-0.4c-0.4,0-0.7,0.1-1,0.2c-0.3,0.1-0.5,0.3-0.7,0.6c-0.2,0.2-0.3,0.5-0.3,0.9c0,0.4,0.1,0.7,0.2,0.9
		c0.2,0.2,0.4,0.4,0.6,0.5c0.2,0.1,0.5,0.2,0.9,0.4c0.2,0.1,0.4,0.2,0.6,0.2c0.1,0.1,0.3,0.1,0.3,0.2c0.1,0.1,0.1,0.2,0.1,0.4
		c0,0.2-0.1,0.3-0.2,0.4c-0.1,0.1-0.2,0.1-0.4,0.1c-0.2,0-0.4-0.1-0.5-0.2c-0.1-0.1-0.2-0.3-0.2-0.5h-1.4c0,0.5,0.3,1,0.7,1.3
		c0.4,0.3,0.9,0.5,1.6,0.5c0.4,0,0.8-0.1,1.1-0.2c0.3-0.1,0.5-0.3,0.7-0.6S107.4,175.8,107.4,175.5 M96.9,171.5v1.1h1.5v4.5h1.4
		v-4.5h1.5v-1.1H96.9z M96.3,171.5H95v3.5l-2.3-3.5h-1.4v5.6h1.4v-3.4l2.3,3.4h1.4V171.5z M90.6,172.6v-1.1h-3.5v5.6h3.5V176h-2.1
		v-1.2h1.9v-1h-1.9v-1.2H90.6z M84.7,171.5h-1.4v5.6h3.2v-1h-1.8V171.5z M79.2,175l0.7-2.1l0.7,2.1H79.2z M81.3,177.1h1.4l-2-5.6
		h-1.6l-2,5.6h1.4l0.3-1H81L81.3,177.1z M72.6,171.5v1.1h1.5v4.5h1.4v-4.5H77v-1.1H72.6z M67.9,171.4c-0.6,0-1,0.1-1.5,0.4
		c-0.4,0.2-0.7,0.6-1,1c-0.2,0.4-0.3,0.9-0.3,1.5c0,0.6,0.1,1,0.3,1.5c0.2,0.4,0.6,0.8,1,1c0.4,0.2,0.9,0.4,1.5,0.4
		c0.5,0,0.9-0.1,1.2-0.3c0.4-0.2,0.7-0.4,0.9-0.7c0.2-0.3,0.4-0.6,0.5-0.9v-1.3h-2.8v1h1.7c-0.1,0.3-0.3,0.6-0.5,0.8
		s-0.5,0.3-0.8,0.3c-0.5,0-0.9-0.1-1.2-0.4c-0.3-0.3-0.4-0.7-0.4-1.2c0-0.5,0.1-0.9,0.4-1.2c0.3-0.3,0.6-0.4,1-0.4
		c0.3,0,0.5,0.1,0.7,0.2c0.2,0.1,0.3,0.3,0.4,0.5h1.4c-0.1-0.6-0.4-1-0.8-1.4S68.6,171.4,67.9,171.4 M64.4,171.5H63v3.5l-2.3-3.5
		h-1.4v5.6h1.4v-3.4l2.3,3.4h1.4V171.5z M57.1,177.1h1.4v-5.6h-1.4V177.1z M53.5,172.6h0.8c0.3,0,0.5,0.1,0.6,0.2
		c0.1,0.1,0.2,0.3,0.2,0.5c0,0.2-0.1,0.4-0.2,0.5c-0.1,0.1-0.3,0.2-0.6,0.2h-0.8V172.6z M56.5,177.1l-1.3-2.2c0.4-0.1,0.8-0.3,1-0.6
		c0.2-0.3,0.3-0.6,0.3-1c0-0.3-0.1-0.6-0.2-0.9c-0.2-0.3-0.4-0.5-0.7-0.6c-0.3-0.2-0.7-0.2-1.1-0.2h-2.3v5.6h1.4V175h0.3l1.2,2.1
		H56.5z M46.5,171.5v3.2c0,0.5,0.1,1,0.3,1.3c0.2,0.4,0.5,0.6,0.8,0.8c0.3,0.2,0.7,0.3,1.2,0.3c0.4,0,0.9-0.1,1.2-0.3
		c0.4-0.2,0.6-0.5,0.8-0.8c0.2-0.4,0.3-0.8,0.3-1.3v-3.2h-1.4v3.2c0,0.4-0.1,0.7-0.2,0.8c-0.2,0.2-0.4,0.3-0.7,0.3
		c-0.3,0-0.6-0.1-0.7-0.3c-0.2-0.2-0.2-0.5-0.2-0.8v-3.2H46.5z M41.6,171.5v1.1h1.5v4.5h1.4v-4.5H46v-1.1H41.6z M38.6,171.4
		c-0.5,0-1,0.1-1.4,0.4c-0.4,0.2-0.7,0.6-1,1c-0.2,0.4-0.3,0.9-0.3,1.5c0,0.6,0.1,1,0.3,1.5c0.2,0.4,0.5,0.8,1,1
		c0.4,0.2,0.9,0.4,1.4,0.4c0.7,0,1.3-0.2,1.8-0.6c0.5-0.4,0.8-0.9,0.9-1.5h-1.4c-0.1,0.3-0.3,0.5-0.5,0.6c-0.2,0.1-0.5,0.2-0.8,0.2
		c-0.4,0-0.7-0.1-1-0.4c-0.2-0.3-0.4-0.7-0.4-1.2c0-0.5,0.1-0.9,0.4-1.2c0.2-0.3,0.6-0.4,1-0.4c0.3,0,0.6,0.1,0.8,0.2
		c0.2,0.1,0.4,0.4,0.5,0.6h1.4c-0.1-0.6-0.4-1.1-0.9-1.5C39.9,171.6,39.3,171.4,38.6,171.4 M31.9,175l0.7-2.1l0.7,2.1H31.9z
		 M34,177.1h1.4l-2-5.6h-1.6l-2,5.6h1.4l0.3-1h2.1L34,177.1z M25.9,171.5v5.6h1.4v-2.3H29v-1h-1.8v-1.2h2.3v-1.1H25.9z M20.3,171.5
		v3.2c0,0.5,0.1,1,0.3,1.3c0.2,0.4,0.5,0.6,0.8,0.8c0.3,0.2,0.7,0.3,1.2,0.3c0.4,0,0.9-0.1,1.2-0.3c0.4-0.2,0.6-0.5,0.8-0.8
		c0.2-0.4,0.3-0.8,0.3-1.3v-3.2h-1.4v3.2c0,0.4-0.1,0.7-0.2,0.8c-0.2,0.2-0.4,0.3-0.7,0.3c-0.3,0-0.6-0.1-0.7-0.3
		c-0.2-0.2-0.2-0.5-0.2-0.8v-3.2H20.3z M19.4,171.5h-1.4v3.5l-2.3-3.5h-1.4v5.6h1.4v-3.4l2.3,3.4h1.4V171.5z M10.4,175l0.7-2.1
		l0.7,2.1H10.4z M12.5,177.1h1.4l-2-5.6h-1.6l-2,5.6h1.4l0.3-1h2.1L12.5,177.1z M6.1,171.5l-1.5,3.9l-1.5-3.9H1.5v5.6h1.4v-3.5
		l1.2,3.5h1.2l1.2-3.5v3.5h1.4v-5.6H6.1z"/>
</g>
<rect x="1.2" y="162.3" class="st0" width="145.6" height="2.2"/>
<g>
	<path class="st0" d="M128.4,57.2v-0.3c0-0.5,0-1.1,0-1.6V55c0-0.1,0-0.2,0-0.3c0-0.2,0-0.4,0-0.6c0-0.4,0-0.7,0-1.1
		c0-0.5-0.1-0.9-0.1-1.4l0-0.3c0-0.2,0-0.4-0.1-0.7c0-0.3-0.1-0.5-0.1-0.8l-5.8-1.4c-0.6-3.8-1.6-7.4-3-10.9l4.3-4.2
		c-0.1-0.2-0.2-0.4-0.3-0.6c-0.1-0.2-0.2-0.4-0.3-0.6c-0.4-0.9-0.9-1.7-1.3-2.5c-0.2-0.3-0.4-0.6-0.5-0.9c-0.3-0.6-0.7-1.2-1.1-1.8
		c-0.2-0.3-0.4-0.6-0.6-0.9c-0.2-0.3-0.4-0.6-0.6-0.9c-0.2-0.3-0.4-0.6-0.6-0.9c-0.1-0.2-0.3-0.4-0.5-0.6h0l-5.8,1.7
		c-2.4-2.9-5.1-5.5-8-7.8l1.6-5.9c-0.1-0.1-0.2-0.1-0.2-0.2c-0.3-0.2-0.6-0.4-0.9-0.6c0,0-0.1,0-0.1-0.1c-0.1-0.1-0.3-0.2-0.4-0.3
		L92.6,30.2c8.1,5.7,13.4,15.2,13.4,25.9c0,10.6-5.3,20-13.3,25.8l11.3,19.6c0.8-0.5,1.6-1.1,2.3-1.6v0l-0.2-0.6l-1.6-5.2
		c2.9-2.3,5.6-5,7.9-8l5,1.4l0.9,0.2c0.8-1.1,1.6-2.3,2.3-3.5c0.1-0.1,0.2-0.3,0.2-0.4l0.1-0.2c0.1-0.2,0.2-0.4,0.4-0.6
		c0.2-0.3,0.3-0.6,0.5-0.9c0.2-0.3,0.3-0.6,0.5-0.9c0.2-0.3,0.3-0.6,0.5-0.9c0.2-0.3,0.3-0.6,0.5-1c0.1-0.2,0.2-0.4,0.3-0.6
		c0.1-0.2,0.2-0.4,0.3-0.6l-4.4-4.1c1.3-3.5,2.3-7.1,2.8-10.9l5.8-1.5c0-0.5,0.1-1.1,0.1-1.6c0-0.3,0-0.6,0.1-1c0-0.3,0-0.6,0-0.8
		c0,0,0-0.1,0-0.1C128.4,57.5,128.4,57.4,128.4,57.2"/>
	<path class="st1" d="M87.9,27.4L99.2,7.8c-17.1-9-37-8.3-53.6,1.9C19.9,25.4,11.9,58.9,27.6,84.6c15.1,24.6,46.6,33,71.7,19.7
		L88.1,84.6c-4.2,2.1-9,3.3-14.1,3.3c-17.6,0-31.9-14.3-31.9-31.9c0-17.6,14.3-31.9,31.9-31.9C79,24.2,83.7,25.3,87.9,27.4"/>
</g>
</svg>
